<?xml version="1.0" standalone="no"?>
<!DOCTYPE svg PUBLIC "-//W3C//DTD SVG 20010904//EN"
 "http://www.w3.org/TR/2001/REC-SVG-20010904/DTD/svg10.dtd">
<svg version="1.0" xmlns="http://www.w3.org/2000/svg"
 width="512.000000pt" height="512.000000pt" viewBox="0 0 512.000000 512.000000"
 preserveAspectRatio="xMidYMid meet">
<metadata>
Created by potrace 1.14, written by Peter Selinger 2001-2017
</metadata>
<g transform="translate(0.000000,512.000000) scale(0.100000,-0.100000)"
fill="#000000" stroke="none">
<path d="M1990 5113 c-23 -9 -642 -423 -669 -447 -13 -11 -27 -32 -32 -45 -9
-22 -54 -236 -73 -343 -2 -13 -34 -170 -70 -350 -36 -179 -66 -329 -66 -331 0
-2 -92 -50 -204 -106 -180 -90 -206 -105 -220 -135 -14 -29 -16 -79 -16 -339
l0 -305 -209 -209 c-227 -228 -214 -209 -226 -343 -3 -30 -7 -71 -10 -90 -2
-19 -7 -64 -10 -100 -3 -36 -8 -85 -11 -110 -3 -25 -7 -70 -9 -100 -2 -30 -7
-73 -9 -95 -3 -22 -8 -67 -11 -100 -3 -33 -7 -78 -9 -100 -3 -22 -7 -69 -11
-105 -3 -36 -8 -78 -10 -95 -2 -16 -6 -64 -10 -105 -3 -41 -8 -86 -10 -100 -2
-14 -6 -52 -9 -85 -14 -144 -17 -173 -21 -220 -3 -27 -7 -70 -10 -95 -3 -25
-7 -70 -10 -100 -3 -30 -7 -76 -10 -102 -3 -25 -8 -70 -10 -100 -3 -29 -7 -73
-10 -98 -16 -135 -14 -178 8 -212 12 -18 33 -35 47 -39 14 -4 1041 -7 2283 -8
1699 -1 2264 2 2280 11 43 23 71 84 56 125 -5 12 -150 212 -324 443 -174 232
-318 431 -321 443 -4 21 -76 455 -100 602 -6 38 -23 132 -29 165 -3 13 -7 42
-10 65 -4 22 -18 108 -32 190 -13 83 -27 165 -29 184 -3 18 -9 43 -15 55 -6
11 -102 113 -214 226 l-203 205 0 190 c0 105 -1 200 -1 213 -1 16 -96 118
-329 351 l-327 328 -319 636 c-175 350 -329 645 -340 656 -23 21 -80 34 -106
24z"/>
<path d="M3712 4259 c-34 -7 -55 -24 -168 -139 l-64 -65 -95 -1 c-52 -1 -108
-7 -123 -13 -38 -16 -65 -63 -59 -104 4 -31 212 -453 241 -490 21 -28 70 -35
201 -33 96 1 125 5 147 20 39 25 258 468 258 520 0 35 -10 48 -126 166 -69 71
-138 133 -153 138 -14 5 -41 5 -59 1z"/>
<path d="M4322 2654 c-160 -80 -238 -125 -250 -142 -15 -22 -17 -58 -18 -255
-2 -236 3 -278 33 -306 10 -9 119 -67 243 -129 252 -126 278 -132 327 -84 23
23 50 96 142 373 111 338 113 345 98 379 -8 20 -70 89 -140 158 -116 113 -128
122 -164 122 -29 0 -95 -28 -271 -116z"/>
<path d="M4595 1492 c-52 -5 -83 -23 -99 -57 -22 -45 -23 -468 -2 -518 7 -18
67 -84 132 -149 96 -93 126 -118 156 -123 73 -14 88 4 218 264 64 128 117 241
118 250 2 50 -15 75 -132 192 -68 67 -131 126 -140 131 -16 9 -190 16 -251 10z"/>
</g>
</svg>
